HIERARCHY
ROOT Hips
{
	OFFSET -211.153198 91.653587 -35.738949
	CHANNELS 6 Xposition Yposition Zposition Zrotation Yrotation Xrotation 
	JOINT LeftUpLeg
	{
		OFFSET 0.103455 1.857827 10.548507
		CHANNELS 3 Zrotation Yrotation Xrotation
		JOINT LeftLeg
		{
			OFFSET 43.500000 -0.000031 0.000008
			CHANNELS 3 Zrotation Yrotation Xrotation
			JOINT LeftFoot
			{
				OFFSET 42.372192 0.000011 -0.000014
				CHANNELS 3 Zrotation Yrotation Xrotation
				JOINT LeftToe
				{
					OFFSET 17.299997 -0.000002 0.000013
					CHANNELS 3 Zrotation Yrotation Xrotation
					End Site
					{
						OFFSET 0.000000 0.000000 0.000000
					}
				}
			}
		}
	}
	JOINT RightUpLeg
	{
		OFFSET 0.103457 1.857826 -10.548499
		CHANNELS 3 Zrotation Yrotation Xrotation
		JOINT RightLeg
		{
			OFFSET 43.500046 -0.000019 0.000015
			CHANNELS 3 Zrotation Yrotation Xrotation
			JOINT RightFoot
			{
				OFFSET 42.372261 -0.000004 0.000013
				CHANNELS 3 Zrotation Yrotation Xrotation
				JOINT RightToe
				{
					OFFSET 17.299992 -0.000006 0.000004
					CHANNELS 3 Zrotation Yrotation Xrotation
					End Site
					{
						OFFSET 0.000000 0.000000 0.000000
					}
				}
			}
		}
	}
	JOINT Spine
	{
		OFFSET 6.901968 -2.603730 -0.000002
		CHANNELS 3 Zrotation Yrotation Xrotation
		JOINT Spine1
		{
			OFFSET 12.588100 -0.000001 0.000009
			CHANNELS 3 Zrotation Yrotation Xrotation
			JOINT Spine2
			{
				OFFSET 12.343201 0.000005 -0.000005
				CHANNELS 3 Zrotation Yrotation Xrotation
				JOINT Neck
				{
					OFFSET 25.832893 -0.000008 -0.000006
					CHANNELS 3 Zrotation Yrotation Xrotation
					JOINT Head
					{
						OFFSET 11.766606 0.000005 0.000008
						CHANNELS 3 Zrotation Yrotation Xrotation
						End Site
						{
							OFFSET 0.000000 0.000000 0.000000
						}
					}
				}
				JOINT LeftShoulder
				{
					OFFSET 19.745903 -1.480373 6.000100
					CHANNELS 3 Zrotation Yrotation Xrotation
					JOINT LeftArm
					{
						OFFSET 11.284123 -0.000007 -0.000024
						CHANNELS 3 Zrotation Yrotation Xrotation
						JOINT LeftForeArm
						{
							OFFSET 33.000053 0.000004 0.000036
							CHANNELS 3 Zrotation Yrotation Xrotation
							JOINT LeftHand
							{
								OFFSET 25.200006 0.000021 -0.000003
								CHANNELS 3 Zrotation Yrotation Xrotation
								End Site
								{
									OFFSET 0.000000 0.000000 0.000000
								}
							}
						}
					}
				}
				JOINT RightShoulder
				{
					OFFSET 19.746101 -1.480381 -6.000079
					CHANNELS 3 Zrotation Yrotation Xrotation
					JOINT RightArm
					{
						OFFSET 11.284133 -0.000015 -0.000008
						CHANNELS 3 Zrotation Yrotation Xrotation
						JOINT RightForeArm
						{
							OFFSET 33.000099 0.000016 0.000006
							CHANNELS 3 Zrotation Yrotation Xrotation
							JOINT RightHand
							{
								OFFSET 25.199781 0.000142 0.000425
								CHANNELS 3 Zrotation Yrotation Xrotation
								End Site
								{
									OFFSET 0.000000 0.000000 0.000000
								}
							}
						}
					}
				}
			}
		}
	}
}
MOTION
Frames: 8
Frame Time: 0.033333
-114.986504 91.187241 -294.979401 91.033622 7.519207 95.937513 -175.443149 -9.639101 177.747545 -11.251937 -1.553146 -5.899226 71.087892 1.018586 -10.220092 21.454553 0.003098 -0.000000 -172.157158 8.425204 -173.856810 -11.286300 4.581001 6.724011 77.124051 -3.219209 6.391700 21.454558 -0.003103 -0.000017 7.915538 0.025523 -0.077969 5.818194 0.054837 -0.154545 5.500093 0.054041 -0.154871 -4.198867 -11.404682 -7.898172 -14.633738 17.849870 -16.591549 -163.329193 -74.860171 -18.540274 -16.291295 59.674994 14.994886 -32.985914 -16.153080 1.364846 10.744387 0.744585 39.060592 -156.792006 67.764076 25.332670 -4.577302 -55.176389 -19.151473 -33.569816 17.990756 -1.521494 7.332631 -2.365998 -11.463259 
-114.960999 91.181023 -294.970703 91.045575 7.599757 95.955784 -175.407003 -9.639691 177.762681 -11.348427 -1.585644 -5.889962 71.144091 1.016029 -10.196578 21.454555 0.003099 0.000000 -172.094006 8.438099 -173.829339 -11.343491 4.561150 6.717480 77.140116 -3.208510 6.416325 21.454560 -0.003110 -0.000017 7.919870 0.036438 -0.085209 5.826810 0.077064 -0.168473 5.508719 0.076177 -0.168935 -3.997694 -11.449289 -7.843934 -14.682185 17.904173 -16.556648 -163.897902 -74.938015 -17.957522 -16.244963 59.716699 15.116319 -32.958760 -16.149000 1.363998 10.711901 0.816085 39.063143 -157.026500 67.822645 25.088897 -4.589322 -55.105635 -19.128486 -33.608769 18.035572 -1.521548 7.337865 -2.377787 -11.397387 
-114.938904 91.175613 -294.953491 91.048621 7.650486 95.962935 -175.393193 -9.645902 177.761233 -11.445576 -1.612250 -5.877620 71.205460 1.015803 -10.177175 21.454548 0.003089 -0.000001 -172.049678 8.444591 -173.753428 -11.386956 4.533552 6.677862 77.150149 -3.175857 6.433223 21.454557 -0.003101 -0.000015 7.913629 0.047481 -0.091831 5.814305 0.099444 -0.181169 5.496219 0.098474 -0.181751 -3.817960 -11.502126 -7.791117 -14.749184 17.969727 -16.534186 -164.512619 -75.009595 -17.327550 -16.095587 59.749614 15.253336 -32.865112 -16.093705 1.358418 10.738274 0.921939 39.144767 -157.194099 67.881125 24.914379 -4.598605 -55.036326 -19.169942 -33.593865 18.080248 -1.521542 7.286670 -2.372898 -11.305647 
-114.916702 91.171021 -294.927185 91.055458 7.674191 95.955217 -175.388371 -9.634293 177.732082 -11.527740 -1.613697 -5.861044 71.263749 1.017002 -10.167233 21.454551 0.003098 -0.000002 -172.024899 8.464097 -173.629064 -11.427090 4.506945 6.601169 77.160790 -3.119664 6.439127 21.454560 -0.003109 -0.000019 7.898420 0.054763 -0.098433 5.783889 0.114314 -0.194020 5.465781 0.113279 -0.194699 -3.690176 -11.561581 -7.740235 -14.767311 18.012023 -16.502077 -165.074580 -75.076135 -16.752041 -15.917454 59.768902 15.471285 -32.680201 -16.041507 1.351098 10.783029 1.002306 39.150286 -157.386314 67.972069 24.713766 -4.538518 -54.995297 -19.255731 -33.571818 18.101174 -1.521460 7.246382 -2.321320 -11.230746 
-114.896202 91.166100 -294.891602 91.061899 7.686149 95.925772 -175.377374 -9.612400 177.688082 -11.598750 -1.601476 -5.850513 71.322604 1.020157 -10.167410 21.454551 0.003090 -0.000001 -172.012413 8.495095 -173.529507 -11.471347 4.496051 6.524578 77.178911 -3.066005 6.437762 21.454560 -0.003108 -0.000017 7.879298 0.058163 -0.104297 5.745623 0.121335 -0.205596 5.427529 0.120228 -0.206316 -3.621142 -11.624280 -7.676012 -14.737146 18.007422 -16.436709 -165.539893 -75.135298 -16.275330 -15.665899 59.782412 15.691403 -32.514511 -15.963614 1.342570 10.807991 1.026100 39.236459 -157.570688 68.112709 24.520350 -4.447843 -55.016754 -19.319182 -33.537509 18.098960 -1.521269 7.231037 -2.267704 -11.235922 
-114.876999 91.160713 -294.841095 91.063436 7.709670 95.858092 -175.326872 -9.589598 177.636787 -11.652999 -1.581537 -5.860564 71.385251 1.027639 -10.182150 21.454551 0.003088 -0.000001 -171.984177 8.529604 -173.534589 -11.501805 4.515685 6.485534 77.200460 -3.040650 6.433000 21.454560 -0.003103 -0.000017 7.861278 0.061636 -0.104826 5.709598 0.126467 -0.206520 5.391503 0.125370 -0.207288 -3.592570 -11.700050 -7.578364 -14.702582 17.997808 -16.341364 -165.931864 -75.175302 -15.874101 -15.318550 59.783819 15.930335 -32.386759 -15.858065 1.333079 10.805410 1.004686 39.375467 -157.799199 68.303278 24.280488 -4.299855 -55.079407 -19.382463 -33.498769 18.087529 -1.520971 7.265193 -2.259605 -11.288952 
-114.862900 91.154877 -294.780914 91.049441 7.740637 95.748768 -175.250920 -9.582787 177.568526 -11.703221 -1.563329 -5.885645 71.454912 1.043308 -10.207421 21.454553 0.003090 0.000000 -171.954671 8.550296 -173.622480 -11.528126 4.546239 6.470263 77.225705 -3.032853 6.427288 21.454557 -0.003105 -0.000017 7.843401 0.064479 -0.097561 5.673845 0.133592 -0.191839 5.355757 0.132570 -0.192635 -3.537875 -11.800101 -7.467510 -14.704091 18.016477 -16.252065 -166.293017 -75.188389 -15.504494 -14.893782 59.758794 16.235356 -32.252170 -15.732977 1.322201 10.803216 0.993184 39.425857 -158.117786 68.507603 23.947465 -4.087047 -55.133618 -19.501191 -33.457818 18.085141 -1.520525 7.307823 -2.295935 -11.337160 
-114.852203 91.147507 -294.717102 91.029114 7.780401 95.638576 -175.172250 -9.587706 177.490867 -11.769649 -1.546429 -5.904291 71.533787 1.054969 -10.232860 21.454555 0.003089 0.000001 -171.928689 8.561290 -173.672258 -11.584711 4.564936 6.430244 77.265511 -3.008288 6.420319 21.454557 -0.003111 -0.000017 7.830697 0.066444 -0.089984 5.648430 0.141851 -0.176531 5.330336 0.140906 -0.177369 -3.522477 -11.936121 -7.349121 -14.663458 18.085436 -16.175674 -166.566908 -75.208224 -15.224119 -14.479398 59.751437 16.540155 -32.128916 -15.636033 1.313381 10.808415 1.048991 39.620998 -158.386404 68.730268 23.665890 -3.921951 -55.202108 -19.653379 -33.379298 18.090309 -1.519923 7.294870 -2.345884 -11.300539 
